<svg width="32" height="27" viewBox="0 0 32 27" fill="none" xmlns="http://www.w3.org/2000/svg">
<path d="M25.9974 21.5919H4.3042C3.16307 21.5906 2.06906 21.1367 1.26215 20.3297C0.455248 19.5228 0.00134015 18.4288 0 17.2877V4.3042C0.00134015 3.16307 0.455248 2.06906 1.26215 1.26215C2.06906 0.455248 3.16307 0.00134015 4.3042 0H25.9974C27.1385 0.00134015 28.2325 0.455248 29.0394 1.26215C29.8463 2.06906 30.3002 3.16307 30.3016 4.3042V17.2877C30.3002 18.4288 29.8463 19.5228 29.0394 20.3297C28.2325 21.1367 27.1385 21.5906 25.9974 21.5919ZM4.3042 1.51913C3.56555 1.51913 2.85716 1.81256 2.33486 2.33486C1.81256 2.85716 1.51913 3.56555 1.51913 4.3042V17.2877C1.51913 18.0263 1.81256 18.7347 2.33486 19.257C2.85716 19.7793 3.56555 20.0728 4.3042 20.0728H25.9974C26.736 20.0728 27.4444 19.7793 27.9667 19.257C28.489 18.7347 28.7824 18.0263 28.7824 17.2877V4.3042C28.7824 3.56555 28.489 2.85716 27.9667 2.33486C27.4444 1.81256 26.736 1.51913 25.9974 1.51913H4.3042Z" fill="#E9E9E9"/>
<path d="M15.1508 13.8747C14.2138 13.8762 13.3018 13.5722 12.5531 13.0088L0.729225 4.06623C0.645684 4.00759 0.574816 3.93273 0.520854 3.8461C0.466891 3.75947 0.430942 3.66285 0.415151 3.56202C0.399361 3.46118 0.404054 3.3582 0.42895 3.25922C0.453847 3.16024 0.498435 3.06729 0.560054 2.98593C0.621672 2.90457 0.699056 2.83646 0.787583 2.78567C0.876111 2.73488 0.973967 2.70245 1.07531 2.69032C1.17665 2.67819 1.27939 2.68661 1.3774 2.71507C1.47542 2.74354 1.56669 2.79146 1.64577 2.85599L13.4697 11.8087C13.9552 12.1712 14.5449 12.367 15.1508 12.367C15.7567 12.367 16.3464 12.1712 16.832 11.8087L28.6559 2.85599C28.735 2.79146 28.8262 2.74354 28.9243 2.71507C29.0223 2.68661 29.125 2.67819 29.2263 2.69032C29.3277 2.70245 29.4255 2.73488 29.5141 2.78567C29.6026 2.83646 29.68 2.90457 29.7416 2.98593C29.8032 3.06729 29.8478 3.16024 29.8727 3.25922C29.8976 3.3582 29.9023 3.46118 29.8865 3.56202C29.8707 3.66285 29.8348 3.75947 29.7808 3.8461C29.7268 3.93273 29.656 4.00759 29.5724 4.06623L17.7485 13.0088C16.9998 13.5722 16.0878 13.8762 15.1508 13.8747Z" fill="#E9E9E9"/>
<path d="M1.05841 19.4752C0.904357 19.4755 0.753876 19.4288 0.626936 19.3416C0.499995 19.2543 0.402596 19.1304 0.347662 18.9865C0.292729 18.8426 0.282857 18.6854 0.319358 18.5357C0.355859 18.386 0.437007 18.251 0.552034 18.1485L9.86936 9.83889C10.0198 9.70459 10.2174 9.63554 10.4187 9.64694C10.62 9.65833 10.8086 9.74924 10.9429 9.89965C11.0772 10.0501 11.1462 10.2477 11.1348 10.449C11.1234 10.6503 11.0325 10.8389 10.8821 10.9732L1.56479 19.2828C1.42642 19.4087 1.24547 19.4775 1.05841 19.4752ZM29.2433 19.4752C29.0563 19.4775 28.8753 19.4087 28.737 19.2828L19.4196 10.9732C19.3451 10.9067 19.2845 10.8262 19.2411 10.7362C19.1978 10.6463 19.1726 10.5487 19.1669 10.449C19.1613 10.3493 19.1753 10.2495 19.2083 10.1552C19.2412 10.061 19.2924 9.97413 19.3589 9.89965C19.4254 9.82517 19.5059 9.76452 19.5958 9.72116C19.6858 9.6778 19.7833 9.65258 19.883 9.64694C19.9827 9.6413 20.0825 9.65534 20.1768 9.68828C20.2711 9.72121 20.3579 9.77239 20.4324 9.83889L29.7446 18.1485C29.8597 18.251 29.9408 18.386 29.9773 18.5357C30.0138 18.6854 30.004 18.8426 29.949 18.9865C29.8941 19.1304 29.7967 19.2543 29.6697 19.3416C29.5428 19.4288 29.3923 19.4755 29.2383 19.4752H29.2433Z" fill="#E9E9E9"/>
</svg>
