<svg width="30" height="30" viewBox="0 0 35 35" fill="none" xmlns="http://www.w3.org/2000/svg">
<path d="M17.7392 8.8089C15.973 8.8089 14.2464 9.33265 12.7778 10.3139C11.3093 11.2952 10.1646 12.6899 9.48874 14.3217C8.81283 15.9535 8.63598 17.749 8.98056 19.4813C9.32513 21.2136 10.1757 22.8049 11.4246 24.0538C12.6735 25.3027 14.2647 26.1532 15.997 26.4978C17.7293 26.8424 19.5249 26.6655 21.1567 25.9896C22.7885 25.3137 24.1832 24.1691 25.1644 22.7005C26.1457 21.2319 26.6695 19.5054 26.6695 17.7391C26.6695 16.5664 26.4385 15.4051 25.9897 14.3217C25.5409 13.2382 24.8832 12.2537 24.0539 11.4245C23.2246 10.5952 22.2402 9.93741 21.1567 9.48863C20.0732 9.03985 18.912 8.80888 17.7392 8.8089ZM17.7392 23.5367C16.5926 23.5367 15.4717 23.1966 14.5183 22.5596C13.5648 21.9225 12.8218 21.0171 12.383 19.9577C11.9442 18.8983 11.8294 17.7326 12.0531 16.608C12.2768 15.4834 12.8289 14.4504 13.6398 13.6396C14.4506 12.8288 15.4836 12.2766 16.6082 12.0529C17.7328 11.8292 18.8985 11.944 19.9579 12.3829C21.0173 12.8217 21.9227 13.5648 22.5598 14.5182C23.1968 15.4716 23.5368 16.5925 23.5368 17.7391C23.5369 18.5005 23.387 19.2544 23.0957 19.9579C22.8043 20.6613 22.3773 21.3005 21.8389 21.8388C21.3005 22.3772 20.6614 22.8042 19.958 23.0956C19.2545 23.3869 18.5006 23.5368 17.7392 23.5367Z" fill="#F2B84B"/>
<path d="M35.0252 10.569C34.9967 9.12635 34.7236 7.69898 34.2174 6.3477C33.78 5.1875 33.0955 4.13629 32.2114 3.2669C31.3433 2.38193 30.2924 1.69729 29.1321 1.26087C27.7809 0.754404 26.3534 0.481262 24.9107 0.453111C23.0564 0.368694 22.4636 0.347824 17.7406 0.347824C13.0177 0.347824 12.4245 0.367407 10.5691 0.453111C9.12642 0.48162 7.69905 0.75475 6.34778 1.26087C5.18725 1.69769 4.13591 2.38226 3.26698 3.2669C2.38152 4.13514 1.69686 5.18669 1.26107 6.3477C0.754953 7.69898 0.481824 9.12635 0.453309 10.569C0.367587 12.4233 0.3479 13.0162 0.3479 17.7391C0.3479 22.462 0.367587 23.0548 0.453274 24.9091C0.481794 26.3518 0.754935 27.7792 1.26107 29.1306C1.69699 30.2915 2.38163 31.343 3.26698 32.2114C4.13634 33.0954 5.18756 33.7799 6.34778 34.2173C7.6991 34.7232 9.12643 34.9964 10.5691 35.0251C12.4245 35.1094 13.0163 35.1304 17.7392 35.1304C22.4621 35.1304 23.055 35.1107 24.9093 35.0251C26.352 34.9965 27.7794 34.7234 29.1306 34.2173C30.2861 33.7705 31.3355 33.0873 32.2114 32.2113C33.0874 31.3354 33.7707 30.286 34.2174 29.1306C34.7241 27.7794 34.9973 26.3519 35.0252 24.9091C35.1096 23.0535 35.1292 22.462 35.1292 17.7391C35.1292 13.0162 35.1096 12.4233 35.0252 10.569ZM31.8965 24.7674C31.8831 25.8702 31.6808 26.9626 31.2983 27.9971C31.0088 28.7471 30.5655 29.4282 29.9969 29.9965C29.4283 30.5648 28.7471 31.0078 27.997 31.2969C26.9627 31.6803 25.8702 31.8827 24.7673 31.8952C22.9341 31.9794 22.3835 31.9963 17.7391 31.9963C13.0947 31.9963 12.5457 31.9794 10.713 31.8952C9.61009 31.8826 8.51757 31.6802 7.48331 31.2969C6.72791 31.0178 6.04445 30.5733 5.48289 29.9961C4.90479 29.4358 4.46018 28.7526 4.18202 27.9971C3.79859 26.9629 3.59621 25.8703 3.58376 24.7674C3.49941 22.9342 3.48263 22.3836 3.48263 17.7392C3.48263 13.0949 3.50087 12.5458 3.58376 10.7111C3.59766 9.60833 3.79999 8.51607 4.18202 7.48151C4.46118 6.72611 4.90563 6.04264 5.48289 5.48109C6.04347 4.90266 6.72722 4.45801 7.48331 4.18022C8.51754 3.79683 9.61008 3.59445 10.713 3.58196C12.5462 3.49763 13.0968 3.48083 17.7391 3.48083C22.3814 3.48083 22.9325 3.49908 24.7673 3.58196C25.8701 3.59586 26.9624 3.79819 27.997 4.18022C28.7473 4.46936 29.4288 4.91251 29.9974 5.48112C30.566 6.04973 31.0091 6.73117 31.2983 7.48153C31.6816 8.51571 31.884 9.60821 31.8965 10.7111C31.9809 12.5459 31.9977 13.095 31.9977 17.7393C31.9977 22.3835 31.9809 22.9327 31.8966 24.7674H31.8965Z" fill="#F2B84B"/>
<path d="M27.0237 6.3687H27.023C26.4696 6.3688 25.9389 6.58871 25.5477 6.98005C25.1565 7.37139 24.9367 7.90212 24.9368 8.45548C24.9368 9.00885 25.1567 9.53953 25.548 9.9308C25.9393 10.3221 26.47 10.5419 27.0234 10.5419C27.5767 10.5419 28.1074 10.3221 28.4987 9.9308C28.89 9.53953 29.1099 9.00885 29.11 8.45548C29.11 7.90212 28.8902 7.37139 28.499 6.98005C28.1078 6.58871 27.5771 6.3688 27.0237 6.3687Z" fill="#F2B84B"/>
</svg>
