<svg width="30" height="30" viewBox="0 0 35 35" fill="none" xmlns="http://www.w3.org/2000/svg">
<path d="M0.17395 10.8696H7.95221V34.7826H0.17395V10.8696ZM29.1392 11.15C29.0566 11.1239 28.9783 11.0957 28.8913 11.0717C28.7869 11.0481 28.6818 11.0278 28.5761 11.0109C28.1168 10.917 27.6493 10.8696 27.1805 10.8696C22.6457 10.8696 19.7696 14.1674 18.8218 15.4413V10.8696H11.0435V34.7826H18.8218V21.7391C18.8218 21.7391 24.7 13.5522 27.1805 19.5652V34.7826H34.9566V18.6457C34.9533 16.9286 34.3804 15.2611 33.3277 13.9046C32.2749 12.5481 30.8017 11.5793 29.1392 11.15Z" fill="#F2B84B"/>
<path d="M3.9783 7.6087C6.07938 7.6087 7.78265 5.90543 7.78265 3.80435C7.78265 1.70326 6.07938 0 3.9783 0C1.87721 0 0.17395 1.70326 0.17395 3.80435C0.17395 5.90543 1.87721 7.6087 3.9783 7.6087Z" fill="#F2B84B"/>
</svg>
