<svg width="19" height="27" viewBox="0 0 19 27" fill="none" xmlns="http://www.w3.org/2000/svg">
<path d="M9.39277 0C4.21768 0 4.40466e-05 4.19427 4.96823e-05 9.34044C-0.00102964 9.45045 0.0154832 9.55992 0.0489701 9.66477C0.135667 12.944 1.56371 15.81 3.2451 18.4701C4.97965 21.2143 6.98995 23.7896 8.27983 26.4159C8.3646 26.5893 8.49626 26.7358 8.66004 26.8389C8.82381 26.9421 9.01324 26.9978 9.20709 26.9999C9.40094 27.002 9.59155 26.9504 9.75756 26.8508C9.92356 26.7513 10.0584 26.6077 10.147 26.4362C11.5013 23.812 13.6148 21.2348 15.4385 18.4904C17.2623 15.7461 18.8181 12.7823 18.8181 9.35666C18.8198 9.22507 18.7962 9.09438 18.7488 8.97153C18.549 3.9989 14.441 0 9.39277 0ZM9.39277 2.07565C13.4398 2.07565 16.6982 5.31596 16.6982 9.34044C16.6969 9.41528 16.7037 9.49004 16.7186 9.56341C16.6562 12.278 15.3921 14.7913 13.6937 17.3471C12.2581 19.5073 10.6388 21.7386 9.23785 24.0565C7.90801 21.7484 6.37592 19.5215 5.01439 17.3674C3.35738 14.7458 2.11993 12.1667 2.11993 9.35666C2.12066 9.29143 2.1152 9.22628 2.10363 9.16207C2.20049 5.22268 5.40716 2.07565 9.39277 2.07565ZM9.39277 6.23507C7.67598 6.23507 6.26186 7.64133 6.26186 9.34855C6.26186 11.0558 7.67598 12.462 9.39277 12.462C11.1096 12.462 12.5237 11.0558 12.5237 9.34855C12.5237 7.64133 11.1096 6.23507 9.39277 6.23507ZM9.39277 8.31073C9.98151 8.31073 10.4364 8.76322 10.4364 9.34855C10.4364 9.93409 9.98151 10.3864 9.39277 10.3864C8.80402 10.3864 8.34913 9.93409 8.34913 9.34855C8.34913 8.76322 8.80402 8.31073 9.39277 8.31073Z" fill="#E9E9E9"/>
</svg>
