<svg width="27" height="27" viewBox="0 0 27 27" fill="none" xmlns="http://www.w3.org/2000/svg">
<path d="M19.6854 16.2135C19.4157 16.0787 17.6629 15.2697 17.3933 15.1348C17.1236 15 16.8539 15 16.5843 15.2697C16.3146 15.5393 15.7753 16.3483 15.5056 16.618C15.3708 16.8876 15.1011 16.8876 14.8315 16.7528C13.8876 16.3483 12.9438 15.809 12.1348 15.1348C11.4607 14.4607 10.7865 13.6517 10.2472 12.8427C10.1124 12.573 10.2472 12.3034 10.382 12.1685C10.5169 12.0337 10.6517 11.764 10.9213 11.6292C11.0562 11.4944 11.191 11.2247 11.191 11.0899C11.3258 10.9551 11.3258 10.6854 11.191 10.5506C11.0562 10.4157 10.382 8.79775 10.1124 8.1236C9.97753 7.17978 9.70787 7.17978 9.4382 7.17978C9.30337 7.17978 9.03371 7.17978 8.76404 7.17978C8.49438 7.17978 8.08989 7.44944 7.95506 7.58427C7.14607 8.39326 6.74157 9.33708 6.74157 10.4157C6.8764 11.6292 7.2809 12.8427 8.08989 13.9213C9.57303 16.0787 11.4607 17.8315 13.7528 18.9101C14.427 19.1798 14.9663 19.4494 15.6405 19.5843C16.3146 19.8539 16.9888 19.8539 17.7978 19.7191C18.7416 19.5843 19.5506 18.9101 20.0899 18.1011C20.3596 17.5618 20.3596 17.0225 20.2247 16.4831C20.2247 16.4831 19.9551 16.3483 19.6854 16.2135ZM23.0562 3.94382C17.7978 -1.31461 9.30337 -1.31461 4.04494 3.94382C-0.269663 8.25843 -1.07865 14.8652 1.88764 20.1236L0 27L7.14607 25.1124C9.16854 26.191 11.3258 26.7303 13.4831 26.7303C20.8989 26.7303 26.8315 20.7978 26.8315 13.382C26.9663 9.8764 25.4831 6.50562 23.0562 3.94382ZM19.4157 22.8202C17.6629 23.8989 15.6404 24.573 13.4831 24.573C11.4607 24.573 9.57303 24.0337 7.82023 23.0899L7.41573 22.8202L3.23596 23.8989L4.31461 19.8539L4.04494 19.4494C0.808989 14.0562 2.42697 7.31461 7.68539 3.94382C12.9438 0.573034 19.6854 2.32584 22.9213 7.44944C26.1573 12.7079 24.6742 19.5843 19.4157 22.8202Z" fill="#E9E9E9"/>
</svg>
